# xmcd CD database file
#
# Track frame offsets:
#	150
#	23558
#	48636
#	70191
#	100423
#	121791
#	138645
#	159913
#	183639
#	206123
#	225711
#	245732
#	270256
#	288051
#	308189
#	327191
#
# Disc length: 4640 seconds
#
# Revision: 0
# Processed by: cddbd v1.5.2PL0 Copyright (c) Steve Scherf et al.
# Submitted via: CDex 1.51
#
DISCID=e2121e10
DTITLE=Gilberto Santa Rosa - Esencial de la Salsa CD2
DYEAR=2009
DGENRE=Salsa
TTITLE0=Vivir sin ella
TTITLE1=Te amo, te extraño
TTITLE2=La cita
TTITLE3=Nunca te diré adios
TTITLE4=Mi mundo
TTITLE5=Casi un hechizo
TTITLE6=Perdóname
TTITLE7=Locamente enamorado
TTITLE8=De parte mia
TTITLE9=Mujer araña
TTITLE10=Torero
TTITLE11=Jardín prohibido
TTITLE12=Las caleñas son como las flores
TTITLE13=Nunca cambies
TTITLE14=Los olores del amor
TTITLE15=Yamulemaue
EXTD=YEAR: 2009
EXTT0=
EXTT1=
EXTT2=
EXTT3=
EXTT4=
EXTT5=
EXTT6=
EXTT7=
EXTT8=
EXTT9=
EXTT10=
EXTT11=
EXTT12=
EXTT13=
EXTT14=
EXTT15=
PLAYORDER=
